# xmcd
#
# Track frame offsets:
#   150
#   7960
#   20045
#   35820
#   59820
#   78685
#   96800
#   118100
#   141610
#   154542
#   166557
#   187592
#   203725
#   219150
#   240420
#   259215
#   278092
#   298405
#   316235
#
# Disc length: 4670 seconds
#
# Revision: 6
# Processed by: cddbd v1.5.2PL0 Copyright (c) Steve Scherf et al.
# Submitted via: Media_Universe 3.0
#
DISCID=10123c13
DTITLE=Cocker, Joe  - Joe Cocker - The Anthology CD1
DYEAR=1999
DGENRE=Rock
TTITLE0=Joe Cocker - I'll Cry Instead
TTITLE1=Joe Cocker - Marjorine
TTITLE2=Joe Cocker - Bye Bye Blackbird
TTITLE3=Joe Cocker - Just Like A Woman
TTITLE4=Joe Cocker - Feelin' Alright
TTITLE5=Joe Cocker - Do I Still Figure In Your Life
TTITLE6=Joe Cocker - Don't Let Me Be Misunderstood
TTITLE7=Joe Cocker - With A Little Help From My Friends
TTITLE8=Joe Cocker - Delta Lady
TTITLE9=Joe Cocker - She Came In Through The Bathroom Window
TTITLE10=Joe Cocker - Hitchcock Railway
TTITLE11=Joe Cocker - Something
TTITLE12=Joe Cocker - Dear Landlord
TTITLE13=Joe Cocker - Darling Be Home Soon
TTITLE14=Joe Cocker - The Letter
TTITLE15=Joe Cocker - Space Captain
TTITLE16=Joe Cocker - Honky Tonk Women
TTITLE17=Joe Cocker - Cry Me A River
TTITLE18=Joe Cocker - Let's Go Get Stoned
EXTD=
EXTT0=
EXTT1=
EXTT2=
EXTT3=
EXTT4=
EXTT5=
EXTT6=
EXTT7=
EXTT8=
EXTT9=
EXTT10=
EXTT11=
EXTT12=
EXTT13=
EXTT14=
EXTT15=
EXTT16=
EXTT17=
EXTT18=
PLAYORDER=
